<svg xmlns="http://www.w3.org/2000/svg" viewBox="0 0 64 64">
  <rect width="64" height="64" fill="#F2F1ED"/>
  <path d="M4.0 44.49707221860768V19.466493168510084H23.201040988939493V24.56733897202342H10.521795705920624V29.959661678594664H21.670787247885492V34.951203643461284H10.521795705920624V44.49707221860768Z" fill="#11110F"/>
  <path d="M37.11906310995446 44.93428757319453Q31.07091737150293 44.93428757319453 27.91932335718933 41.728041639557574Q24.767729342875732 38.521795705920624 24.767729342875732 31.96356538711776Q24.767729342875732 27.627846454131422 26.316200390370852 24.767729342875732Q27.864671437865976 21.90761223162004 30.834092387768386 20.468445022771633Q33.80351333767079 19.029277813923226 37.993493819128176 19.029277813923226Q40.507482108002606 19.029277813923226 42.72999349381913 19.612231620039037Q44.952504879635654 20.195185426154847 46.664931685100846 21.342875731945348Q48.37735849056604 22.49056603773585 49.32465842550423 24.22121014964216Q50.271958360442426 25.95185426154847 50.271958360442426 28.28366948601171H43.85946649316851Q43.85946649316851 27.29993493819128 43.42225113858166 26.516590761223163Q42.9850357839948 25.733246584255042 42.20169160702668 25.204944697462587Q41.41834743005856 24.676642810670135 40.398178269355896 24.40338321405335Q39.378009108653224 24.130123617436563 38.24853610930384 24.130123617436563Q36.57254391672089 24.130123617436563 35.279115159401435 24.56733897202342Q33.98568640208198 25.00455432661028 33.147690305790505 25.91541964866623Q32.30969420949903 26.826284970722185 31.89069616135329 28.137931034482758Q31.47169811320755 29.44957709824333 31.47169811320755 31.198438516590763V32.80156148340924Q31.47169811320755 35.13337670787248 32.20039037085231 36.700065061808715Q32.92908262849707 38.26675341574496 34.40468445022772 39.05009759271307Q35.88028627195836 39.833441769681194 38.029928432010415 39.833441769681194Q39.70592062459337 39.833441769681194 41.035783994795054 39.32335718932986Q42.36564736499675 38.81327260897853 43.14899154196487 37.84775536759922Q43.93233571893299 36.88223812621991 43.93233571893299 35.534157449577094V35.351984385165906H37.19193233571893V30.7612231620039H50.271958360442426V44.49707221860768H46.48275862068966L45.86337020169161 41.87378009108653Q44.73389720234223 42.8939492517892 43.44046844502277 43.58620689655173Q42.14703968770332 44.27846454131425 40.5985686402082 44.606376057254394Q39.05009759271308 44.93428757319453 37.11906310995446 44.93428757319453Z" fill="#11110F"/>
  <path d="M53.66037735849057 44.49707221860768V38.41249186727391H60.0V44.49707221860768Z" fill="#FF4D00"/>
</svg>
